<?xml version="1.0" encoding="utf-8"?>
<!-- Generator: Adobe Illustrator 13.0.0, SVG Export Plug-In . SVG Version: 6.00 Build 14948)  -->
<!DOCTYPE svg PUBLIC "-//W3C//DTD SVG 1.0//EN" "http://www.w3.org/TR/2001/REC-SVG-20010904/DTD/svg10.dtd">
<svg version="1.0" id="svg2" xmlns:svg="http://www.w3.org/2000/svg"
	 xmlns="http://www.w3.org/2000/svg" xmlns:xlink="http://www.w3.org/1999/xlink" x="0px" y="0px" width="47.473px"
	 height="47.473px" viewBox="0 0 47.473 47.473" enable-background="new 0 0 47.473 47.473" xml:space="preserve">
<path id="path2171" fill="none" stroke="#ffffff" stroke-width="4" stroke-linecap="round" d="M28.982,43.589
	c10.2-3.649,16.09-15.146,12.342-25.465C37.947,8.83,27.43,3.469,18.021,6.95C9.633,10.052,4.801,19.587,8.014,28.088
	c2.826,7.481,11.383,11.785,18.975,8.84c6.575-2.552,10.353-10.129,7.673-16.812c-2.273-5.67-8.876-8.921-14.647-6.505
	c-4.767,1.995-7.493,7.624-5.339,12.482c1.713,3.862,6.375,6.07,10.32,4.173c2.961-1.427,4.655-5.133,3.004-8.157
	c-1.125-2.062-3.904-3.261-5.993-1.837c-1.167,0.797-1.922,2.745-0.669,3.83c0.463,0.399,1.966,0.503,1.666-0.498"/>
</svg>
