<?xml version="1.0" encoding="utf-8"?>
<!-- Generator: Adobe Illustrator 13.0.0, SVG Export Plug-In . SVG Version: 6.00 Build 14948)  -->
<!DOCTYPE svg PUBLIC "-//W3C//DTD SVG 1.1//EN" "http://www.w3.org/Graphics/SVG/1.1/DTD/svg11.dtd">
<svg version="1.1" id="Layer_1" xmlns="http://www.w3.org/2000/svg" xmlns:xlink="http://www.w3.org/1999/xlink" x="0px" y="0px"
	 width="895.737px" height="201.021px" viewBox="0 0 895.737 201.021" enable-background="new 0 0 895.737 201.021"
	 xml:space="preserve">
<g id="outline" display="none">
	<defs>
		<rect id="SVGID_1_" x="-70.492" y="146.42" width="338.984" height="169.492"/>
	</defs>
	<clipPath id="SVGID_2_" display="inline">
		<use xlink:href="#SVGID_1_"  overflow="visible"/>
	</clipPath>
	<g display="inline" clip-path="url(#SVGID_2_)">
		<path fill-rule="evenodd" clip-rule="evenodd" fill="#7E6284" d="M-0.661,160.448c-0.062,1.962-1.45,4.522-0.847,6.779
			C-2.726,165.401-1.335,162.051-0.661,160.448z"/>
		<path fill-rule="evenodd" clip-rule="evenodd" fill="#7E6284" d="M-27.102,167.228c0.005,0.501-0.785,0.574-1.017,0.339
			C-28.1,167.134-27.551,167.23-27.102,167.228z"/>
		<path fill-rule="evenodd" clip-rule="evenodd" fill="#7E6284" d="M-26.085,185.363c-0.877,0.704-1.697,1.467-2.881,1.864
			C-28.114,186.124-27.461,185.858-26.085,185.363z"/>
		<path fill-rule="evenodd" clip-rule="evenodd" fill="#7E6284" d="M-43.542,188.414c0.851,0.675,0.341,2.71,0.848,3.729
			C-43.632,191.244-43.069,189.835-43.542,188.414z"/>
		<path fill-rule="evenodd" clip-rule="evenodd" fill="#7E6284" d="M-26.254,239.771c-0.854,0.454-2.271,0.015-3.22,0
			C-29.29,239.356-27.078,239.707-26.254,239.771z"/>
		<path fill-rule="evenodd" clip-rule="evenodd" fill="#7E6284" d="M63.746,249.771c-0.405,0.838-1.31,1.176-2.204,1.525
			C61.947,250.458,62.852,250.119,63.746,249.771z"/>
		<path fill-rule="evenodd" clip-rule="evenodd" fill="#7E6284" d="M47.644,124.177c0.169,0,0.339,0,0.509,0
			c-0.422,0.991-1.343,1.482-1.865,2.373c0.791-0.035,2.361-0.666,2.712-1.695c0.356,1.053-2.099,2.182-3.39,2.712
			c-0.547,0.526-0.953,1.194-1.356,1.865c-0.687-0.701,1.184-0.983,0.508-1.695c-0.376,0.131-0.661,0.356-1.187,0.339
			c-0.636,0.583,0.418,1.527,0.17,1.695c-2.544,4.015-6.662,8.055-12.204,7.966c-3.337,2.889-4.832,7.172-7.627,10.339
			c-0.965,1.093-2.696,2.812-4.237,3.39c-2.957,1.108-6.903-0.382-10.678,0.848c-1.8,0.586-3.198,2.456-4.746,3.729
			c-1.675,1.378-3.426,2.384-4.577,3.898c-0.264,0.284-0.943,0.609-1.525,1.017c-0.585,1.9-0.936,4.036-1.525,5.933
			c0.758,0.781,3.542,1.093,3.729,2.712c0.172,1.497-2.769,3.954-3.729,3.898c-1.26-0.073-1.57-1.484-2.373-2.373
			c-1.782-0.884-4.488,0.38-6.78,1.017c-2.036,0.566-4.058,0.791-5.593,1.525c-1.83,0.876-3.93,3.149-5.593,4.577
			c-1.867,1.603-4.387,3.252-4.576,5.423c5.313-2.06,14.128-2.226,17.966,1.525c8.628,8.435-4.451,19.533-14.067,19.153
			c-0.899,2.291,2.252,5.687,3.39,7.457c1.537,2.394,2.925,4.279,4.068,6.103c6.607,1.735,12.696,3.194,20,4.745
			c0.942,0.2,2.037,0.732,2.712,0.678c1.453-0.117,3.248-1.862,4.407-2.542c1.713-1.005,3.162-1.59,4.407-2.542
			c3.283-2.512,6.168-6.978,8.644-10.509c1.193-1.701,2.552-3.65,3.729-5.933c1.182-2.293,2.216-5.977,4.407-6.102
			c2.253-0.128,8.664,0.937,10,2.034c2.358,1.937,4.252,5.81,6.102,8.813c5.478,8.899,11.793,18.914,17.797,26.44
			c4.472,1.461,8.959,2.905,13.39,4.407c5.819-5.091,10.915-11.543,16.441-17.627c5.842-6.433,12.762-14.201,21.695-16.949
			c8.325-2.562,23.496-1.46,31.017,1.187c1.138,3.971-4.407,4.021-6.78,5.593c-0.901-0.229-1.503-0.734-2.712-1.017
			c-1.047,4.037-1.129,9.04-2.373,12.881c-1.118,0.102-1.798-0.235-2.373-0.678c0.659-4.426,1.337-8.832,2.034-13.221
			c-4.716-3.304-11.654-1.031-15.424,1.695c0.377,3.694,0.717,8.318,0.848,11.695c-0.581,0.136-1.259,0.195-2.373,0.169
			c-0.48-3.191-0.57-6.774-0.847-10.169c-3.742,2.246-6.686,5.291-9.661,8.305c1.462,3.453,3.17,7.563,4.237,10.848
			c-0.262,0.788-1.447,1.134-1.864,0.848c-1.73-2.847-2.74-6.413-4.068-9.661c-1.805,1.523-3.452,3.302-5.085,5.085
			c-1.619,1.768-4.107,3.922-5.254,6.102c-3.629,6.899-6.908,14.932-10.847,21.864c4.979,5.077,10.964,9.149,17.288,12.881
			c0.713-3.862,1.079-8.074,1.695-12.033c0.723-0.22,1.968,0.062,2.712,0.339c-0.357,3.883-1.174,8.766-1.695,13.051
			c3.87,2.345,8.589,3.841,13.39,5.254c0.966-4.57,1.41-9.664,2.204-14.406c0.743-0.341,1.989,0.111,2.712,0.339
			c-0.727,4.696-1.412,9.436-2.034,14.237c5.275,0.302,10.27-2.304,14.746-3.898c1.016-3.674,1.386-7.993,2.203-11.864
			c0.733-0.38,2.171-0.188,2.542,0.339c-0.388,3.171-0.984,6.134-1.525,9.152c0.779,0.435,1.206-0.938,2.204-0.848
			c1.86,1.305,4.278,2.05,5.932,3.56c-2.287,0.249-4.609,1.654-7.119,2.542c-8.476,3-20.839,2.137-28.983-1.017
			c-3.943-1.526-6.056-3.126-9.661-4.576c-2.894-1.745-5.709-3.775-8.474-5.763c-2.718-1.953-5.758-3.929-7.966-6.271
			c-0.642-0.681-0.959-1.616-1.695-2.203c-0.491-0.391-1.189-0.475-1.695-0.848c-1.338-0.985-2.167-2.585-3.39-3.898
			c-3.342-3.588-7.398-6.994-10.339-11.017c1.789,0.811,3.24,3.426,4.746,5.085c1.474-0.73,2.156-2.251,3.729-2.882
			c-0.69,1.344-2.021,2.047-3.051,3.051c1.507,1.883,3.003,3.777,4.915,5.255c2.331-1.45,4.369-3.338,6.441-5.255
			c1.923-1.779,4.355-3.673,5.932-5.763c2.752-3.646,3.983-8.35,6.44-12.542c-4.201-2.897-7.459,2.229-10,4.915
			c-3.102,3.281-4.892,5.884-8.135,7.966c1.078,1.37,4.487,0.62,4.407,2.712c-0.097,2.521-4.59-0.279-6.61-0.339
			c-2.616-1.181-6.111-2.348-8.983-2.712c-7.808-9.004-15.029-20.141-21.695-31.017c-1.747-2.851-4.161-7.238-6.61-8.306
			c-2.269-0.988-5.584-0.414-7.797-1.187c3.568,11.588,9.888,22.377,16.78,32.712c4.812,7.217,10.233,14.302,16.61,20.679
			c1.922,1.922,4.569,5.031,6.61,5.763c2.982,1.067,6.516,0.532,9.831,1.187c-1.263-1.572-3-3.203-4.576-4.916
			c-1.559-1.693-3.272-3.292-4.746-4.915c1.672,0.248,1.708,1.286,3.22,2.712c11.779,11.106,24.92,23.763,44.068,27.458
			c10.182,1.965,20.752-0.209,27.797-4.576c0.437-0.129,0.589-0.541,0.508-1.187c1.351,1.531-1.008,2.095-1.864,2.542
			c-4.737,2.473-10.606,4.781-17.288,4.746c-12.333-0.064-23.141-1.136-32.542-5.085c-10.464-4.396-19.087-11.731-26.61-18.136
			c-10.337,6.105-22.879,11.437-38.475,10.848c-11.537-0.436-22.048-3.828-31.017-7.458c-9.203-3.724-16.571-9.936-22.542-15.932
			c-12.764,0.75-22.791-2.927-30.848-8.645c-9.52-6.756-17.847-19.496-13.559-34.915c4.315-15.516,18.817-25.772,33.898-30.678
			c10.353-8.413,21.919-15.961,39.152-17.288c2.87-0.222,6.952,0.438,8.644-1.187c-2.003,0.343-4.239-0.216-7.288,0.169
			c2.29-0.867,6.3-0.75,9.153-0.508c-1.606-1.501-4.391-1.825-6.271-3.052c-1.281,0.979-2.559,1.961-3.559,3.221
			c-6.603,1.646-13.448,3.05-19.322,5.424c4.632-2.487,10.474-3.764,16.441-4.915c6.513-5.182,13.584-9.805,22.712-12.373
			c0.236,0.414-1.583,0.219-1.695,0.847c1.487-0.714,3.39-0.685,5.085-1.017c1.558-0.305,2.76-1.313,4.068-1.187
			c-1.03-1.215-2.032-0.19-3.051,0.339c1.432-2.523,4.722-4.656,7.288-6.61c0.245,0.646-1.318,0.938-1.525,1.695
			c0.279,1.077,0.985,1.727,1.187,2.881c2.75-0.333,2.362-3.56,1.864-5.593c0.785,0.571,0.499,2.213,0.848,3.22
			c0.915-1.075,2.66-1.99,2.034-4.068c-0.795-0.451-1.383,0.76-2.373,0.678C43.107,127.663,46.749,127.293,47.644,124.177z
			 M-3.373,171.974c-0.298-0.33-1.361-0.776-1.864-0.339C-4.643,171.799-3.815,173.171-3.373,171.974z M30.017,138.414
			c-1.248-0.467-2.169,0.582-3.729,0.339c-0.282,2.147-0.678,3.884-0.678,5.932c-0.264,0.245-0.334,0.683-1.017,0.509
			c0.632-1.638,1.019-4.391,1.017-6.102c-2.237,0.758-4.777,1.212-6.441,2.542c1.507,2.053,2.364,4.755,3.898,6.78
			c-0.128-1.055,0.648-2.892,1.525-2.881c-0.044,0.474-0.952,0.956-0.508,1.356c1.177-1.204,2.278-2.831,3.22-4.237
			c0.48-0.717,1.236-1.761,1.017-2.034c-0.462,0.668-0.976,1.284-1.695,1.695C27.493,140.749,28.769,139.596,30.017,138.414z
			 M36.458,132.482c-0.807,1.284-2.391,1.79-3.051,3.22c1.285,1.037,3.64,0.338,4.746-0.678
			C37.276,134.488,37.447,132.905,36.458,132.482z M11.373,146.38c3.145,0.595,7.215,4.9,10.678,2.373
			c-0.75-2.132-2.276-4.955-3.729-6.949C15.859,143.183,13.252,144.417,11.373,146.38z M4.593,152.821
			c1.034-0.661,3.38-0.01,3.898-1.187C7.097,151.935,4.894,151.426,4.593,152.821z M0.017,152.821
			c-0.714,2.111-0.821,4.828-1.525,6.949c2.988-2.21,5.959-4.437,8.644-6.949c-4.061-0.332-4.505,2.952-6.441,4.745
			c-0.1-1.116,0.732-1.302,0.848-2.203c-1.053,0.021-1.103,1.045-1.695,1.525c-0.104-2.477,1.801-2.944,2.711-4.407
			C1.548,152.432,0.708,152.551,0.017,152.821z M-13.204,156.719c2.027,3.453,4.84,6.121,6.949,9.492
			c0.867-0.076,1.177,0.404,1.865,0.508c1.147-4.559,2.287-9.125,3.39-13.729C-5.458,153.844-9.361,155.25-13.204,156.719z
			 M-7.949,165.872c-2.087-2.885-4.469-5.475-6.44-8.475c-0.113,0-0.226,0-0.339,0c-4.449,2.331-8.819,4.739-12.034,8.305
			c2.926,1.211,5.848,0.041,9.322-0.169c2.395-0.146,4.868-0.151,6.78,0c0.642,0.051,2.293,0.057,2.373,0.847
			c-4.99-0.857-13.436,0.439-19.661,0.17c-0.7,0.938-1.965,1.312-3.39,1.525c-0.407,1.387-2.6,1.609-4.237,2.203
			c-14.342,5.198-29.465,16.474-31.526,33.56c-1.411,11.703,3.855,19.655,9.492,26.102c8.25,7.513,18.977,12.549,34.746,12.543
			c-1.541-2.188-3.408-4.05-5.085-6.102c0.246,1.863-1.194,3.144-2.712,2.203c-0.085-2.119,0.671-3.397,0.678-5.424
			c-3.267-5.264-6.383-10.68-7.966-17.627c-2.352,1.942-4.118,4.469-6.102,6.779c-1.993,2.322-4.328,4.431-5.933,7.119
			c5.352,3.292,11.739,5.549,19.153,6.779c-3.276,0.353-5.994-0.632-8.644-1.355c-3.667-1.002-6.484-3.021-10.169-3.221
			c5.463,3.588,11.419,6.354,19.491,7.966c-14.348-2.086-25.323-8.814-31.017-19.661c-2.248-4.282-3.943-9.929-3.39-16.271
			c0.42-4.813,2.304-9.593,4.237-12.881c8.837-15.026,28.857-24.585,52.542-23.051c0.271-0.633,1.055-0.754,1.187-1.525
			C-7.144,166.196-7.636,166.123-7.949,165.872z M-25.237,169.431c-0.392,1.868-0.876,3.644-1.187,5.594
			c4.902-0.917,9.276-2.362,11.695-5.763C-17.926,168.327-22.114,168.535-25.237,169.431z M-6.932,169.601
			c-1.615-0.532-3.36-0.934-5.424-1.017C-11.106,169.369-8.678,169.876-6.932,169.601z M-32.017,170.957
			c-1.367,2.022-2.826,3.953-3.729,6.44c2.663-0.614,5.329-1.226,7.797-2.034c-0.056-2.064,1.341-4.379,0.848-5.763
			C-28.625,170.168-30.381,170.502-32.017,170.957z M-13.542,169.601c-0.793,1.017-2.736,1.782-2.881,2.882
			c2.065-0.93,4.957-1.032,6.78-2.204C-11.075,170.184-12.171,169.755-13.542,169.601z M-42.695,175.533
			c0.938,1.32,1.889,2.63,3.22,3.559c0.815-2.574,2.333-4.446,3.729-6.44C-38.58,173.095-40.424,174.527-42.695,175.533z
			 M-26.763,176.041c-0.192,1.503-0.593,2.798-0.848,4.237c2.216-1.852,5.204-3.835,6.61-5.932
			C-22.771,175.062-24.941,175.377-26.763,176.041z M-36.254,178.414c-0.254,1.34-1.212,2.442-1.017,3.56
			c0.273,1.567,2.697,2.358,3.051,3.898c1.105-1.288,3.82-2.142,4.746-3.898c0.504-0.958,1.06-5.056,0.848-5.594
			C-30.982,177.246-33.732,177.716-36.254,178.414z M-40.661,191.296c-0.17,0-0.202-0.138-0.339-0.17
			c-0.641-2.601-0.59-6.875,0.508-9.491c-1.125-1.926-2.637-3.465-4.068-5.085c-5.412,3.571-11.046,7.823-13.898,13.39
			c6.706,1.146,13.094,2.529,19.831,3.221c0.305-0.771,0.803-2.244,1.356-2.203c-3.501,7.236-2.231,18.649,0.17,26.102
			c0.845,2.625,2.342,7.765,3.898,9.152c1.625,1.447,4.276,1.718,5.932,2.542c-2.01-4.295-4.304-8.059-5.084-12.203
			c-0.037-0.195,0.177-0.267,0.169-0.339c-0.334-3.211-1.782-6.694-1.356-9.152c1.125,9.717,4.433,17.35,8.813,24.406
			c11.071,17.833,29.414,32.902,55.933,34.068c16.034,0.705,27.96-4.695,38.136-10.678c-4.285-3.738-7.708-8.337-11.695-12.373
			c1.501,4.261,3.311,8.214,4.746,12.542c-2.372,2.812-3.054-1.768-3.56-3.221c-1.26-3.621-2.821-7.237-4.237-10.847
			c-0.719-1.833-1.341-3.825-2.203-5.424c-0.853-1.582-2.203-2.881-3.221-4.407c-4.346-6.517-8.054-12.724-11.525-18.983
			c-0.403,16.276-1.456,32.204-1.525,48.476c8.667-1.446,15.785-4.441,22.542-7.797c-2.941,2.147-6.701,3.647-10.508,5.085
			c-3.719,1.403-7.883,3.031-12.034,2.881c0.009,0.743,0.119,1.588-0.508,1.695c-1.788,1.001-2.609-1.743-3.56-0.17
			c1.832,0.797,3.395,0.273,4.746,0c1.531-0.31,4.269-0.653,5.423-0.508c0.394,0.049,0.174,0.348,0.509,0.339
			c4.068-0.109,7.154-1.91,11.356-2.373c-11.298,4.589-27.473,3.772-39.492,0.508c-2.045-0.555-4.59-1.488-6.271-2.372
			c-0.873-0.459-1.412-1.336-2.204-1.695c-0.565-0.256-1.247-0.116-1.864-0.339c-1.527-0.552-3.202-1.999-4.916-3.051
			c-4.036-2.478-8.113-5.579-11.187-8.645c-0.662-0.66-1.025-1.651-1.695-2.373c-0.66-0.71-1.527-1.183-2.034-1.864
			c-0.438-0.588-0.69-1.446-1.187-2.033c-0.857-1.014-2.03-1.79-2.881-2.882c-3.006-3.854-5.639-8.746-7.458-14.067
			c-1.589-4.651-3.713-9.087-4.068-13.898c-0.441-5.982-0.306-14.31,3.051-18.306c2.354-2.802,5.983-3.987,10.678-5.085
			c-3.171-2.543-8.395,1.005-11.356,0.34c-1.071,0.255-1.138,2.328-2.542,1.694c0.198-0.819,1.657-0.377,1.356-1.694
			c-1.967,1.196-4.163,3.633-6.441,5.084c-0.535,1.199-2.089,3.057-3.56,2.204c0.787-2.095,3.272-2.491,4.407-4.237
			c-0.708-0.673-1.315-2.267-2.204-2.204c0.108,1.025,0.413,2.748,0.169,3.56c-0.715-0.571-0.792-2.855-0.339-3.56
			c-0.69-0.496-1.514-0.858-2.373-1.187C-40.626,186.398-41.146,189.172-40.661,191.296z M-22.525,187.059
			c-0.105,2.895-0.842,6.042-0.848,8.475c3.125-2.808,5.793-6.071,8.475-9.322C-17.866,185.843-20.562,185.958-22.525,187.059z
			 M-13.373,186.889c-1.404,1.969-3.357,4.067-4.915,5.763c-0.395,0.429-1.422,1.062-1.017,1.695
			c2.817-1.308,5.797-2.451,8.813-3.56C-10.486,188.522-11.631,187.407-13.373,186.889z M-25.068,188.075
			c-1.365,1.178-3.115,1.97-3.729,3.898c1.149,0.998,1.66,2.634,3.221,3.221C-25.51,192.935-24.436,189.906-25.068,188.075z
			 M-59.813,191.635c-2.692,5.1-4.549,10.88-3.39,18.305c7.967-2.542,15.779-5.238,23.39-8.136c0.92-3.579-1.435-4.286-2.034-6.779
			c0.858,0.894,1.298,2.205,2.204,3.051c0.148-0.962,0.463-2.538,0.508-3.051C-45.531,194.018-53.218,192.393-59.813,191.635z
			 M-19.305,196.041c1.915-0.186,3.483,0.839,4.916,0.509c1.744-0.402,2.49-2.6,3.39-3.898c0.26-0.04,0.025-0.279-0.169-0.339
			C-13.588,193.849-16.988,194.403-19.305,196.041z M-29.813,194.686c0.479-0.141,0.439,0.238,0.847,0.169
			c0.074-0.638-0.358-0.771-0.678-1.017C-29.787,194.035-29.868,194.292-29.813,194.686z M-26.763,196.889
			c-0.736-0.619-2.271-0.441-3.39-0.678C-31.302,198.592-27.728,198.087-26.763,196.889z M-15.916,198.245
			c-1.872-0.433-6.128-2.083-7.288,0.169c1.269,2.21,4.83-0.847,6.441,0.17c-1.342,0.595-3.265,1.267-5.085,0.848
			c-0.292,0.304,0.72,0.74,0.678,1.355c-0.393,0.398-0.556,1.026-1.356,1.017c-0.823,0.032-0.593-0.989-1.356-1.017
			c-0.181,0.949-0.354,1.906-0.339,3.051c4.001-0.461,7.412-1.514,9.491-3.898C-15.706,199.956-15.753,199.043-15.916,198.245z
			 M-28.627,199.601c0.147,0.531,0.42,0.937,0.847,1.187c0.247-0.898,2.145-1.711,1.525-2.373
			C-26.84,199.016-27.848,199.193-28.627,199.601z M-30.831,203.499c0.823,0.145,0.962-0.394,1.187-0.848
			c-0.489-0.302-0.492-1.09-1.187-1.187C-30.831,202.143-30.831,202.821-30.831,203.499z M140.187,207.059
			c0.063,0.672-0.155,1.624,0.17,2.033c2.25-1.482,6.898-1.457,6.949-4.576c-2.341-0.184-4.31,2.35-6.61,2.204
			c1.286-1.427,3.971-1.453,5.424-2.712c-4.821-1.569-12.108-2.047-18.983-1.695C131.997,203.384,135.999,205.314,140.187,207.059z
			 M-39.983,203.668c-7.45,2.833-15.125,5.439-22.712,8.136c1.763,7.221,5.887,12.08,10.848,16.103
			c4.467-4.969,8.983-9.888,13.22-15.085C-39.709,209.832-39.52,206.875-39.983,203.668z M-30.661,207.059
			c-0.116,0.669,0.313,2.543,0.508,3.559c0.336,1.746,0.736,4.538,2.204,4.407c0.129-3.637,2.245-8.652-0.678-10.509
			C-28.957,205.316-30.446,205.816-30.661,207.059z M33.407,208.414c-1.952,3.006-5.17,5.49-6.949,8.645
			c-1.764,3.127-2.918,6.702-4.576,10c-4.938,9.821-9.707,19.907-14.407,29.83c6.65,3.485,15.795,5.051,25.932,3.898
			c0.667-15.05,1.169-32.486,1.865-47.797c0.099-2.186,0.407-4.57-0.339-6.61c-0.036-0.189-0.188-0.264-0.339-0.339
			C34.11,206.852,33.891,207.669,33.407,208.414z M-25.746,215.702c1.844,0.303,3.353,0.94,5.254,1.187
			c-1.537-2.361-2.826-4.971-4.746-6.949C-25.258,212.01-25.726,213.632-25.746,215.702z M-17.949,235.872
			c0.708,1.91,2.689-0.381,3.898-1.017c1.655-0.872,3.364-1.645,4.576-2.373c-2.862-4.369-6.183-8.281-8.983-12.712
			c-2.508-0.656-5.045-1.282-7.627-1.864c-0.812,3.533,0.095,5.609,1.356,7.966c1.881,3.516,4.167,7.173,6.441,9.83
			c0.828-0.136,2.21-0.609,2.881-0.339C-16.383,235.404-16.791,236.014-17.949,235.872z M10.864,223.329
			c2.087-0.36,3.983,1.505,2.034,2.712c-2.129-0.018-4.193-0.101-6.102-0.339c-4.093,2.631-8.653,4.794-12.542,7.627
			c0.409,0.495,0.883,0.925,1.017,1.695c-0.394,0.624-0.789,1.245-1.695,1.356c-0.629-0.502-1.012-1.248-1.525-1.865
			c-2.691,1.32-5.004,3.019-7.627,4.407c1.144,3.414,4.573,2.084,7.966,1.017c5.416-1.703,10.317-4.251,14.237-6.61
			c6.327-3.807,11.452-7.937,14.746-13.22C17.036,217.92,14.115,221.907,10.864,223.329z M-7.441,231.126
			c3.482-2.055,7.244-3.829,10.339-6.271c-5.999-1.289-11.835-2.741-17.627-4.237C-12.904,224.05-9.748,227.612-7.441,231.126z
			 M-13.034,241.804c4.937,5.741,11.16,10.197,18.136,13.898c5.198-10.959,11.101-22.119,15.933-32.881
			C12.147,231.617,1.594,238.749-13.034,241.804z M99.339,227.397c0.188-0.776,1.46-1.359,1.017-2.203
			C100.003,225.806,99.228,226.886,99.339,227.397z M79.169,248.584c1.004,1.538,2.443,2.642,3.729,3.898
			c2.421-4.585,5.426-9.489,7.288-14.068C86.804,242.094,83.067,245.419,79.169,248.584z M139.678,268.245
			c0.386,2.459-1.698,5.157-3.729,3.051c-0.184-0.435,0.515-0.809,0-1.017c-0.348,0.781-1.384,0.876-1.864,1.525
			c0.702,0.54,1.121,1.364,2.034,1.694c3.861-0.996,7.009-2.114,10-3.22C144.286,268.874,142.13,266.952,139.678,268.245z"/>
		<path fill-rule="evenodd" clip-rule="evenodd" fill="#7E6284" d="M31.034,137.058c-1.013,0.569-2.476,0.688-3.729,1.017
			C28.362,137.55,29.751,137.357,31.034,137.058z"/>
		<path fill-rule="evenodd" clip-rule="evenodd" fill="#7E6284" d="M-39.305,175.533c0.312,0.434-0.683,1.006-0.678,1.694
			C-40.368,176.722-39.431,176.091-39.305,175.533z"/>
		<path fill-rule="evenodd" clip-rule="evenodd" fill="#7E6284" d="M-42.017,180.957c-0.105,1.816-1.11,4.199-1.187,6.609
			C-43.563,185.458-42.622,183.055-42.017,180.957z"/>
		<path fill-rule="evenodd" clip-rule="evenodd" fill="#7E6284" d="M-24.729,184.686c-0.109,0.512-0.77,0.473-1.017,0.848
			C-25.961,185.361-25.338,184.595-24.729,184.686z"/>
		<path fill-rule="evenodd" clip-rule="evenodd" fill="#7E6284" d="M-16.254,200.278c-1.137,0.896-2.403,1.665-4.407,1.695
			C-19.334,201.227-17.693,200.932-16.254,200.278z"/>
		<path fill-rule="evenodd" clip-rule="evenodd" fill="#7E6284" d="M72.051,245.533c-0.261-0.09-0.011-0.177,0.17-0.17
			C73.32,246.783,73.692,247.369,72.051,245.533z"/>
	</g>
</g>
<g id="simple" display="none">
	<defs>
		<rect id="SVGID_3_" x="-77.729" y="140.992" width="343.84" height="171.92"/>
	</defs>
	<clipPath id="SVGID_4_" display="inline">
		<use xlink:href="#SVGID_3_"  overflow="visible"/>
	</clipPath>
	<g display="inline" clip-path="url(#SVGID_4_)">
		<g>
			<path fill-rule="evenodd" clip-rule="evenodd" fill="#231F20" d="M42.099,121.7c0.172,0,0.344,0,0.516,0
				c-0.438,0.938-1.318,1.433-1.719,2.407c1.339-0.265,2.046-1.163,3.094-1.719c-0.992,1.244-2.277,2.192-3.954,2.751
				c-2.936,3.381-4.615,7.056-8.596,9.112c-1.642,0.848-3.766,0.527-5.674,1.375c-1.451,0.646-2.432,2.912-3.782,4.814
				c-2.139,3.014-5.257,8.755-9.627,9.283c-3.8,0.461-9.228-0.96-12.722,0c-2.168,0.597-3.944,4.548-4.985,6.533
				c-1.299,2.478-3.072,5.984-2.407,8.94c0.229,1.021,1.856,1.715,1.891,2.75c0.037,1.111-2.355,3.864-3.783,3.782
				c-1.708-0.097-2.144-2.189-2.922-3.61c-4.295-1.73-10.82-2.063-17.02-1.031c-3.039,0.506-6.872,0.979-8.768,2.063
				c-1.202,0.688-2.294,3.028-3.095,4.47c-2.019,3.637-3.849,8.862-2.235,14.098c1.766-0.756,2.598-2.505,4.126-3.438
				c5.654-3.456,16.546-5.815,22.178-1.376c1.769,1.395,4.079,4.267,3.61,8.081c-0.879,7.168-10.362,11.814-17.708,12.378
				c-1.896,0.146-4.181-0.387-5.673-0.688c0.367,13.674,6.082,23.488,12.206,31.977c20.045-3.697,32.909-14.185,42.636-28.71
				c1.157-1.728,2.471-3.663,3.61-6.018c0.977-2.018,2.307-5.3,3.782-5.674c1.221-0.309,8.265,0.686,9.456,1.204
				c3.282,1.43,6.531,8.398,8.424,11.519c7.537,12.419,16.054,24.545,25.1,34.556c8.127-6.541,14.729-14.702,22.006-22.693
				c6.958-7.642,14.89-16.65,26.132-18.396c6.487-1.007,16.897-0.648,23.037,0.859c1.398,0.344,4.426,0.649,4.814,1.72
				c0.778,2.146-1.287,2.983-2.751,3.61c-1.523,0.652-3.38,1.714-4.47,1.719c-1.529,0.007-4.171-1.646-5.673-2.234
				c-1.79-0.702-4.006-1.753-6.189-1.72c-2.632,0.04-6.461,1.96-8.596,3.267c-17.044,10.433-26.459,28.841-42.292,40.229
				c8.388,8.674,17.621,16.221,29.742,21.834c4.079,1.889,8.616,3.853,13.066,4.126c3.724,0.229,8.777-1.585,11.691-2.751
				c1.135-0.454,2.927-1.436,4.47-2.235c1.379-0.714,3.056-2.333,4.126-2.406c1.295-0.089,7.738,3.359,7.393,5.329
				c-0.238,1.357-4.869,3.149-6.533,3.782c-13.362,5.087-35.378,2.529-46.762-2.75c-10.46-4.852-19.164-11.02-26.648-18.052
				c-12.4,8.169-31.905,13.866-51.404,9.455c-17.313-3.917-32.126-11.111-41.949-22.006c-11.638,0.269-20.126-2.186-27.679-6.532
				c-7.5-4.317-13.644-10.55-16.676-18.567c-2.654-7.019-2.083-16.611,0.688-23.21c4.802-11.432,14.869-19.806,26.304-24.756
				c1.597-0.691,3.494-1.175,5.158-2.063c1.322-0.706,2.645-2.193,3.954-3.267c7.667-6.286,17.681-11.474,28.71-14.27
				c1.816-0.46,3.96-0.53,5.845-1.203c1.799-0.642,4.045-3.239,5.846-4.47c5.043-3.448,11.026-6.337,17.536-8.252
				c1.275-0.375,2.833-0.515,3.954-1.031c1.841-0.847,3.689-3.295,5.673-4.814c2.958-2.263,5.642-4.062,9.456-5.329
				C40.749,123.559,41.547,122.753,42.099,121.7z M28.345,132.531c-0.483,0.483-1.275,1.084-1.204,1.719
				c6.564-0.371,9.222-4.646,12.035-8.768C34.494,126.583,31.131,129.746,28.345,132.531z M3.245,145.769
				c-0.751,0.639-1.924,1.259-1.719,1.891c4.625-0.69,9.991,0.07,14.27-0.688c2.524-3.665,4.762-7.616,7.908-10.659
				c-0.02-0.21-0.051-0.407-0.344-0.344C15.219,137.437,8.614,141.197,3.245,145.769z M-5.523,151.614
				c0.817-0.935,1.73-1.299,0-1.031c-11.197,1.73-21.525,7.177-28.195,13.581c-0.306,0.294-1.266,0.537-1.032,1.204
				c6.088-1.918,15.866-2.39,22.521-1.204C-11.206,159.083-8.458,154.97-5.523,151.614z M-67.242,190.64
				c-3.951,7.243-4.438,17.779-0.688,25.444c5.45,11.138,16.992,17.639,32.837,19.083c-2.675-5.022-6.1-9.898-8.424-16.16
				c-1.827-4.923-2.693-9.756-3.094-15.645c-0.125-1.84,0.54-4.023,0.172-5.846c-0.259-1.279-1.729-2.4-2.235-3.438
				c-3.793-7.786-0.363-17.086,3.954-22.178c-0.039-0.133-0.005-0.339-0.172-0.344C-54.291,175.943-62.453,181.858-67.242,190.64z
				 M-23.575,196.657c3.607-1.448,10.047-7.795,4.814-11.003c-4.514-2.767-12.969-0.179-15.817,3.095
				c-1.503,1.728-1.837,4.553-2.407,7.221C-33.836,198.043-27.587,198.268-23.575,196.657z M-19.277,241.013
				c1.505,2.338,3.974,4.294,6.361,6.189c6.866,5.449,15.735,11.518,25.96,12.894c18.775,2.527,33.833-3.968,45.387-11.175
				c-2.142-3.133-5.5-6.533-8.252-9.627c-7.826-10.569-15.151-21.641-20.975-34.213c-0.01-0.104-0.025-0.203-0.172-0.172
				C17.506,221.52,3.731,235.884-19.277,241.013z"/>
		</g>
	</g>
</g>
<g id="solid" display="none">
	<defs>
		<rect id="SVGID_5_" x="-71.491" y="142.212" width="345.399" height="172.7"/>
	</defs>
	<clipPath id="SVGID_6_" display="inline">
		<use xlink:href="#SVGID_5_"  overflow="visible"/>
	</clipPath>
	<g display="inline" clip-path="url(#SVGID_6_)">
		<g>
			<path fill-rule="evenodd" clip-rule="evenodd" fill="#231F20" d="M48.881,121.359c0.172,0,0.345,0,0.518,0
				c-0.34,1.176-1.239,1.164-1.727,2.418c1.039-0.458,2.197-0.797,2.763-1.727c0.259,0.836-2.3,2.346-3.627,2.763
				c-3.696,4.651-6.587,10.106-14.507,10.535c-2.941,2.754-4.539,6.807-7.253,10.017c-1.136,1.343-2.949,3.175-4.663,3.799
				c-1.998,0.728-3.959,0.122-5.872,0.173c-1.624,0.042-3.841,0.298-5.354,0.863c-1.579,0.59-3.188,2.37-4.49,3.454
				c-1.468,1.222-2.813,2.491-4.317,3.627c-0.462,2.475-2.347,4.942-1.554,7.944c0.327,1.24,1.86,1.408,1.899,2.59
				c0.043,1.296-2.436,3.877-3.799,3.8c-1.219-0.069-1.911-2.01-2.763-2.418c-1.618-0.774-4.253,0.534-6.044,1.036
				c-2.322,0.651-4.295,0.798-6.044,1.555c-1.956,0.845-4.029,3.212-5.699,4.663c-1.858,1.614-4.169,2.914-4.835,5.354
				c5.373-1.67,13.157-2.479,17.615,1.036c1.973,1.556,4.226,4.503,3.627,8.462c-1.013,6.7-9.902,11.059-17.443,11.916
				c0.08,3.211,2.253,5.165,3.626,7.254c1.419,2.158,2.699,4.325,4.318,6.39c5.759,1.242,11.072,2.862,17.097,4.145
				c1.888,0.402,4.222,1.342,5.872,1.209c1.515-0.121,3.121-1.726,4.318-2.417c1.63-0.943,3.091-1.491,4.317-2.418
				c3.487-2.636,6.577-7.113,9.153-10.881c1.248-1.824,2.563-3.802,3.8-6.217c1.118-2.185,2.398-5.646,3.972-6.045
				c1.207-0.305,7.935,0.528,9.499,1.209c2.789,1.216,4.982,5.938,6.735,8.809c5.908,9.666,12.336,19.584,18.824,27.805
				c4.402,1.585,8.979,2.994,13.471,4.49c3.162-2.299,5.821-5.397,8.635-8.463c2.698-2.939,5.339-6.104,8.117-9.153
				c5.366-5.893,11.411-12.556,18.652-16.061c7.324-3.546,21.492-3.826,30.74-1.555c1.202,0.295,4.409,0.549,4.836,1.728
				c0.717,1.979-1.263,2.795-2.763,3.453c-2.53,1.111-4.736,2.817-7.253,0.864c-0.861,4.204-1.159,8.973-2.245,12.952
				c-0.813,0.453-2.029,0.009-2.591-0.346c0.423-4.757,1.417-8.944,1.9-13.643c-4.742-3.322-11.549-1.01-15.371,1.727
				c0.227,4.033,0.502,8.018,0.864,11.916c-0.769,0.21-1.77,0.188-2.763,0.173c-0.22-3.406-0.59-6.663-0.691-10.189
				c-3.505,1.792-6.775,5.314-9.671,8.29c1.206,3.862,3.432,7.617,4.145,11.398c-2.325,2.34-3.278-1.979-4.145-4.146
				c-0.858-2.146-1.481-3.873-1.9-5.181c-1.89,1.564-3.442,3.462-5.181,5.354c-1.598,1.738-3.709,3.519-5.008,5.526
				c-1.113,1.722-1.779,3.915-2.763,5.872c-2.758,5.486-5.748,11.303-8.635,16.925c5.145,4.986,11.039,9.225,17.442,12.952
				c0.989-3.674,1.077-8.248,1.9-12.089c1.004-0.447,2.122,0.071,2.936,0.346c-0.712,4.297-1.09,8.927-1.9,13.125
				c3.85,2.482,8.567,4.098,13.644,5.354c1.022-4.677,1.181-10.217,2.417-14.68c1.108-0.071,1.934,0.139,2.591,0.519
				c-0.594,4.99-1.394,9.773-2.073,14.68c6.052-0.511,10.788-2.338,15.198-4.49c0.759-3.961,1.095-8.347,2.245-11.917
				c0.788-0.393,1.667,0.02,2.245,0.346c0.299,3.127-0.96,6.173-1.209,9.326c0.696,0.401,1.144-0.924,2.245-0.691
				c1.445,1.811,7.459,2.205,6.908,5.354c-0.266,1.52-4.726,2.931-6.563,3.626c-5.143,1.948-9.771,3.062-16.579,2.764
				c-7.044-0.31-13.254-0.127-18.824-1.382c-15.818-3.562-28.103-13.037-38.339-22.105c-11.769,7.471-28.76,13.397-48.011,10.017
				c-19.249-3.381-35.44-11.167-45.765-22.624c-8.977,0.08-16.166-1.087-22.624-3.799c-11.616-4.88-20.952-14.159-23.314-26.251
				c-2.898-14.836,5.635-27.107,13.125-33.677c4.399-3.857,9.214-6.982,14.853-9.498c1.779-0.794,3.852-1.258,5.699-2.245
				c1.415-0.756,2.693-2.232,3.972-3.281c9.335-7.654,20.325-12.39,34.54-15.543c0.117-0.026,0.215-0.119,0.346-0.173
				c1.866-0.765,3.978-2.934,6.044-4.317c5.148-3.447,10.667-6.348,17.27-8.29c1.292-0.38,2.828-0.51,3.972-1.036
				c1.154-0.531,2.301-1.948,3.454-2.936c3.294-2.824,7.15-5.795,11.744-7.253C47.524,123.227,48.327,122.417,48.881,121.359z
				 M38.173,129.649c0.573,0.866,0.795,2.083,1.554,2.763c1.973-0.706,2.555-3.207,1.382-5.354
				C40.187,127.978,38.741,128.375,38.173,129.649z M44.563,125.504c-0.027,0.545-0.006,1.042,0.346,1.208
				c0.234-0.629,0.874-0.853,1.036-1.554C45.396,125.185,45.185,125.55,44.563,125.504z M41.627,126.886
				c0.267,0.999,0.179,2.354,0.69,3.108c0.665-1.268,2.828-2.374,1.727-4.317C43.308,126.149,42.346,126.396,41.627,126.886z
				 M37.482,129.822c-0.775,1.252-2.731,2.201-2.936,3.454c1.53,0.667,2.937-0.245,4.49-0.518
				C38.689,131.608,38.309,130.493,37.482,129.822z M30.402,136.039c-0.02-0.211-0.052-0.409-0.346-0.346
				c-0.86,0.349-1.917,0.5-2.936,0.691c-0.094,1.29-0.729,2.952-0.346,4.145C27.792,138.84,29.003,137.346,30.402,136.039z
				 M20.04,138.802c0.945,2.395,2.146,4.532,3.454,6.562c1.576-2.166,3.226-5.179,2.763-8.808
				C24.224,137.344,21.973,137.915,20.04,138.802z M18.831,139.32c-2.371,1.486-4.979,2.735-6.908,4.663
				c3.354,0.691,6.842,4.49,10.708,2.417C22.019,144.076,20.449,141.214,18.831,139.32z M10.887,144.501
				c-0.65,1.036-3.008,2.151-2.763,2.937c2.85-0.375,6.248-0.2,9.153-0.519C15.018,146.242,13.243,145.081,10.887,144.501z
				 M5.015,150.373c1.346-0.209,2.911-0.198,3.8-0.863C7.31,149.559,5.509,149.312,5.015,150.373z M0.525,150.373
				c-0.258,0.61-0.826,1.816-0.518,2.418c0.652-0.959,1.518-1.706,2.245-2.591C1.498,150.079,1.279,150.494,0.525,150.373z
				 M1.561,155.727c1.85-1.893,4.166-3.317,6.044-5.181C3.798,150.365,2.365,153.479,1.561,155.727z M-13.119,154.518
				c2.313,3.328,4.677,6.606,7.426,9.499c0.755-5.348,4.338-7.866,5.008-13.298C-5.21,151.604-9.212,153.013-13.119,154.518z
				 M-14.846,155.209c-4.344,2.506-8.772,4.928-12.089,8.462c5.564,1.08,12.438-1.302,18.824,0
				C-9.908,161.094-12.311,157.625-14.846,155.209z M-28.662,165.226c0.502-0.188,1.22-0.162,1.554-0.519
				C-27.983,164.548-28.343,164.531-28.662,165.226z M-25.208,167.298c-0.576,1.784-0.806,3.914-1.382,5.699
				c4.879-0.765,9.802-2.399,11.571-5.699C-18.253,166.402-21.848,166.647-25.208,167.298z M-6.901,167.643
				c-1.536-0.422-3.737-1.097-5.354-0.863C-10.585,167.068-8.523,167.882-6.901,167.643z M-36.088,175.414
				c2.717-0.506,5.228-1.22,7.771-1.899c0.118-1.853,1.449-4.29,0.864-5.699C-32.64,168.04-34.341,171.75-36.088,175.414z
				 M-16.4,170.406c2.13-0.748,4.822-0.935,6.562-2.072C-13.021,167.242-15.001,168.458-16.4,170.406z M-43.168,173.86
				c0.765,0.675,1.258,1.62,2.072,2.245c0.394-1.748,2.649-3.438,2.418-4.663C-40.105,172.317-41.893,172.833-43.168,173.86z
				 M-21.063,172.997c-0.02-0.211-0.051-0.409-0.345-0.346c-1.634,0.783-3.922,0.913-5.526,1.727
				c0.088,1.472-0.894,2.788-0.518,3.973C-25.356,176.532-23.361,174.613-21.063,172.997z M-36.606,176.796
				c-0.444,1.053-0.748,2.246-1.036,3.454c1.16,1.259,1.997,2.839,3.454,3.8c1.504-1.26,2.943-2.584,4.49-3.8
				c0.142-2.046,0.843-3.531,1.036-5.526C-31.347,175.378-33.998,176.065-36.606,176.796z M-45.241,174.896
				c-5.483,3.612-10.653,7.538-13.989,13.298c5.151,1.009,10.261,2.059,15.716,2.763c-0.973-4.328-0.216-9.382,1.381-12.606
				C-43.041,177.071-43.891,175.734-45.241,174.896z M-31.943,183.704c0.645-0.392,1.619-0.453,1.727-1.382
				C-30.945,182.629-31.431,183.18-31.943,183.704z M-37.469,186.985c0.349-0.63,1.023-0.935,1.554-1.382
				c-0.544-0.952-1.257-1.736-2.072-2.418C-37.997,184.635-38.02,186.097-37.469,186.985z M-22.444,185.259
				c-0.357,2.866-0.711,5.736-1.036,8.635c1.579-0.947,2.908-2.758,4.317-4.317c1.449-1.604,3.061-3.223,4.145-5.009
				C-17.623,184.118-20.459,184.553-22.444,185.259z M-13.119,185.259c-2.033,2.572-4.338,4.872-6.39,7.426
				c3.178-1.082,6.178-2.342,9.153-3.627C-10.429,186.944-11.685,186.012-13.119,185.259z M-29.007,190.439
				c1.095,1.035,1.853,2.407,3.108,3.281c0.571-2.135,0.542-4.869,1.036-7.081C-26.742,187.408-28.191,188.607-29.007,190.439z
				 M-60.438,190.094c-2.858,4.468-4.69,11.161-3.626,18.479c7.751-2.208,16.049-5.365,23.833-8.117
				c0.88-3.974-1.704-4.646-2.418-7.426C-48.704,192.176-54.421,190.984-60.438,190.094z M-19.163,194.584
				c1.831-0.046,3.153,0.416,5.008,0.346c1.161-0.924,3.359-2.612,2.936-3.973C-13.631,192.402-16.917,192.973-19.163,194.584z
				 M-30.043,193.202c0.25-0.094,0.893,0.202,0.863-0.172c-0.352-0.051-0.339-0.468-0.691-0.519
				C-29.925,192.745-30.116,192.842-30.043,193.202z M-30.043,196.484c1.281-0.044,2.24-0.408,2.936-1.037
				c-0.855-0.468-2.161-0.486-3.454-0.518C-30.723,195.782-30.351,196.101-30.043,196.484z M-22.79,197.692
				c2.265-0.096,4.284-0.437,5.699-1.381C-19.52,196.278-24.194,194.999-22.79,197.692z M-63.547,210.646
				c1.975,7.179,5.846,12.46,11.226,16.233c2.91-3.425,6.74-7.485,10.017-11.226c0.826-0.942,2.94-2.907,3.108-3.972
				c0.184-1.164-0.682-2.936-0.863-4.49c-0.211-1.809,0.066-3.374-0.519-4.663C-48.211,205.258-55.739,208.091-63.547,210.646z
				 M-28.834,203.219c-1.797,1.231-2.085,3.138-1.554,6.045c0.318,1.743,0.748,4.494,2.072,4.49
				C-27.909,210.469-26.117,205.128-28.834,203.219z M35.928,205.119c-0.038-0.135-0.145-0.201-0.345-0.173
				c-1.854,4.113-5.679,7.001-7.944,10.88c-3.716,6.363-6.648,13.521-9.844,20.379c-3.193,6.853-6.738,13.551-9.844,20.379
				c6.602,3.53,16.299,5.012,26.423,3.972C34.741,242.116,36.362,223.119,35.928,205.119z M-25.898,214.444
				c1.779,0.295,3.824,1.241,5.354,1.209c-1.673-2.184-3.002-4.711-4.663-6.908C-25.478,210.605-25.659,212.555-25.898,214.444z
				 M36.964,260.21c9.054-1.423,16.624-4.331,23.314-8.116c-0.98-3.034-2.184-5.801-3.281-8.636
				c-1.101-2.844-1.895-5.978-3.281-8.635c-0.994-1.905-2.71-3.704-3.972-5.526c-4.041-5.837-7.46-11.89-10.88-18.134
				C38.006,227.287,37.656,243.92,36.964,260.21z M-50.422,228.434c5.366,3.499,11.722,6.009,19.86,6.735
				c0.082-0.955,0.104-1.969,0.346-2.764c-3.604-5.204-6.227-11.389-8.462-17.961C-42.458,219.243-46.848,223.43-50.422,228.434z
				 M-22.962,228.261c0.71,1.259,3.423,6.238,4.663,6.562c1.219,0.319,3.798-0.498,5.181-1.036c1.397-0.544,2.373-1.669,3.627-2.072
				c-2.688-4.623-6.269-8.354-8.98-12.953c-2.763-0.402-4.952-1.381-7.771-1.727C-27.281,221.768-24.973,224.695-22.962,228.261z
				 M-7.074,230.16c3.539-1.93,6.969-3.969,10.362-6.044c-5.988-1.266-12.25-3.178-17.961-4.146
				C-12.064,223.292-9.884,227.041-7.074,230.16z M-12.946,241.213c5.098,5.725,11.259,10.386,18.479,13.989
				c5.298-10.993,11.238-22.266,16.061-33.158C12.63,230.983,1.876,238.133-12.946,241.213z M75.131,241.731
				c1.037-1.094,2.351-1.909,3.282-3.108c-2.768-0.859-5.607-1.647-8.29-2.591C71.693,238.031,73.109,240.185,75.131,241.731z
				 M81.003,248.294c1.453,1.08,2.375,2.69,3.972,3.627c2.209-4.699,5.348-9.39,7.081-13.989
				C88.674,241.688,84.797,244.949,81.003,248.294z M62.524,250.712c1.125-0.487,2.117-1.107,2.936-1.9
				c-2.26-2.057-4.02-4.614-6.217-6.735C60.292,244.999,61.374,247.89,62.524,250.712z"/>
		</g>
	</g>
</g>
<g>
	<path d="M52.004,90.827H91.07v56.316c0,28.412-14.206,44.647-41.603,44.647c-27.397,0-41.604-16.235-41.604-44.647V54.804
		c0-28.412,14.206-44.647,41.604-44.647c27.397,0,41.603,16.235,41.603,44.647v17.25H64.688V53.029
		c0-12.684-5.581-17.504-14.459-17.504c-8.878,0-14.459,4.82-14.459,17.504v95.89c0,12.684,5.581,17.25,14.459,17.25
		c8.879,0,14.459-4.566,14.459-17.25v-32.725H52.004V90.827z"/>
	<path d="M137.049,108.762h30.2v20h-30.2v40.999h38v20h-59.999V49.763h59.999v20h-38V108.762z"/>
	<path d="M214.648,88.362v101.398h-19.8V49.763h27.6l22.6,83.799V49.763h19.6v139.998h-22.6L214.648,88.362z"/>
	<path d="M308.845,108.762h30.2v20h-30.2v40.999h38v20h-59.999V49.763h59.999v20h-38V108.762z"/>
	<path d="M428.1,138.264l19.025-126.078h38.812v177.574h-26.383V62.415l-19.279,127.346h-26.382L393.092,64.19v125.57h-24.353
		V12.187h38.812L428.1,138.264z"/>
	<path d="M604.651,189.761h-28.158l-4.819-32.217h-34.247l-4.819,32.217h-25.622l28.412-177.574h40.842L604.651,189.761z
		 M540.979,133.444h26.89l-13.444-89.802L540.979,133.444z"/>
	<path d="M650.565,61.146v128.614h-25.114V12.187h35.008l28.665,106.291V12.187h24.86v177.574h-28.665L650.565,61.146z"/>
	<path d="M742.137,12.187h27.904v177.574h-27.904V12.187z"/>
	<path d="M888.757,189.761h-28.158l-4.819-32.217h-34.247l-4.819,32.217h-25.622l28.412-177.574h40.842L888.757,189.761z
		 M825.084,133.444h26.89l-13.444-89.802L825.084,133.444z"/>
</g>
</svg>
